<svg xmlns="http://www.w3.org/2000/svg" viewBox="0 0 1920 1080" width="1920" height="1080" role="img" aria-labelledby="t d"><title id="t">fixture</title><desc id="d">Architecture overview · 37 files · 20 imports · TypeScript. Tests hidden (3 files). Partial evidence (analysis predates confidence tracking)</desc><style>.m4{font-family:"IBM Plex Mono",ui-monospace,monospace;font-weight:400}.m6{font-family:"IBM Plex Mono",ui-monospace,monospace;font-weight:600}.s6{font-family:"IBM Plex Sans",system-ui,sans-serif;font-weight:600}.si{font-family:"IBM Plex Sans",system-ui,sans-serif;font-weight:400;font-style:italic}.ink{fill:#EDE7DA}.muted{fill:#B5AC9C}.faint{fill:#A39A8C}.accent{fill:#E07A50}.assisted{fill:#A99BDB}</style><defs><marker id="ah-plain-156" viewBox="0 0 10 10" refX="9" refY="5" markerWidth="10.13" markerHeight="10.13" markerUnits="userSpaceOnUse" orient="auto"><path d="M0 1L9 5L0 9Z" fill="#B5AC9C"/></marker></defs><defs><marker id="ah-plain-503" viewBox="0 0 10 10" refX="9" refY="5" markerWidth="17.06" markerHeight="17.06" markerUnits="userSpaceOnUse" orient="auto"><path d="M0 1L9 5L0 9Z" fill="#B5AC9C"/></marker></defs><defs><marker id="ah-plain-125" viewBox="0 0 10 10" refX="9" refY="5" markerWidth="9.5" markerHeight="9.5" markerUnits="userSpaceOnUse" orient="auto"><path d="M0 1L9 5L0 9Z" fill="#B5AC9C"/></marker></defs><rect width="1920" height="1080" fill="#1C1A16"/><path d="M72 80.45h28" stroke="#E07A50" stroke-width="1"/><text x="110" y="85" class="m6 accent" font-size="13" letter-spacing="1.2">FIG. · ARCHITECTURE OVERVIEW</text><text x="1848" y="85" text-anchor="end" class="m4 faint" font-size="13">2026-09-29</text><text x="72" y="142.2" class="s6 ink" font-size="44">fixture</text><text x="72" y="174.5" class="m4 muted" font-size="17">Architecture overview · 37 files · 20 imports · TypeScript</text><path d="M72 202H1848" stroke="#3F3A31" stroke-width="1"/><g transform="translate(72 335.85) scale(1.31)"><g class="group"><rect x="557" y="55.25" width="774" height="246" rx="10" fill="none" stroke="#5A5346" stroke-dasharray="4 3"/><text x="571" y="77.35" class="m6 muted" font-size="13">lib</text><text x="1317" y="77.35" text-anchor="end" class="m4 faint" font-size="13">31 files</text></g><g class="group"><rect x="804" y="96.5" width="509" height="133" rx="10" fill="none" stroke="#5A5346" stroke-dasharray="4 3"/><text x="818" y="118.6" class="m6 muted" font-size="13">analysis</text><text x="1299" y="118.6" text-anchor="end" class="m4 faint" font-size="13">21 files</text></g><path class="edge" d="M214 145.2C214 145.2 250 107.13 286 102.9" fill="none" stroke="#B5AC9C" stroke-width="1.56" stroke-linecap="round" marker-end="url(#ah-plain-156)"/><path class="edge" d="M214 161.4L250 161.4L307.5 161.4L355.42 161.4L403.33 161.4L441.67 161.4L469.83 161.4L498 161.4L516 161.4L552 140.75L575 140.75" fill="none" stroke="#B5AC9C" stroke-width="1.56" stroke-linecap="round" marker-end="url(#ah-plain-156)"/><path class="edge" d="M214 177.6C250 191.25 268 191.25 296.17 191.25C324.33 191.25 362.67 191.25 410.58 191.25C458.5 191.25 516 191.25 822 191.25" fill="none" stroke="#B5AC9C" stroke-width="1.56" stroke-linecap="round" marker-end="url(#ah-plain-156)"/><path class="edge" d="M214 193.8L250 227.4L268 227.4L293.17 227.4L318.33 227.4L350.67 227.4L383 227.4L415.33 227.4L447.67 227.4L472.83 227.4L498 227.4L516 227.4L552 242.75L575 242.75" fill="none" stroke="#B5AC9C" stroke-width="1.56" stroke-linecap="round" marker-end="url(#ah-plain-156)"/><path class="edge" d="M480 102.9C480 102.9 516 101.54 552 89.25C789 89.25 789 150.75 822 150.75" fill="none" stroke="#B5AC9C" stroke-width="1.56" stroke-linecap="round" marker-end="url(#ah-plain-156)"/><path class="edge" d="M769 140.75C779 140.75 779 171 822 171" fill="none" stroke="#B5AC9C" stroke-width="1.56" stroke-linecap="round" marker-end="url(#ah-plain-156)"/><path class="edge" d="M1034 171L1101 171" fill="none" stroke="#B5AC9C" stroke-width="5.03" stroke-linecap="round" marker-end="url(#ah-plain-503)"/><rect x="1054" y="174" width="27" height="21" rx="10.5" fill="#1C1A16"/><text x="1067.5" y="189.12" text-anchor="middle" class="m4 muted" font-size="14">13</text><g class="unit-group"><title>(root files) · 1 file · 10 lines</title><rect class="unit" x="24.5" y="20" width="185" height="81" rx="6" fill="#25221C" stroke="#5A5346"/><text x="40.5" y="51.95" class="m6 ink" font-size="19">(root files)</text><text x="40.5" y="74.45" class="m4 muted" font-size="15">1 file · 10 lines</text><rect x="40.5" y="88" width="153" height="3" rx="1.5" fill="#2E2A23"/><rect x="40.5" y="88" width="11.77" height="3" rx="1.5" fill="#5A5346"/></g><g class="unit-group"><title>app · 2 files · 20 lines</title><rect class="unit" x="20" y="129" width="194" height="81" rx="6" fill="#25221C" stroke="#5A5346"/><text x="36" y="160.95" class="m6 ink" font-size="19">app</text><text x="36" y="183.45" class="m4 muted" font-size="15">2 files · 20 lines</text><rect x="36" y="197" width="162" height="3" rx="1.5" fill="#2E2A23"/><rect x="36" y="197" width="24.92" height="3" rx="1.5" fill="#5A5346"/></g><g class="unit-group"><title>components · 3 files · 30 lines · 1 internal imports</title><rect class="unit" x="286" y="62.4" width="194" height="81" rx="6" fill="#25221C" stroke="#5A5346"/><text x="302" y="94.35" class="m6 ink" font-size="19">components</text><text x="302" y="116.85" class="m4 muted" font-size="15">3 files · 30 lines</text><rect x="302" y="130.4" width="162" height="3" rx="1.5" fill="#2E2A23"/><rect x="302" y="130.4" width="37.38" height="3" rx="1.5" fill="#5A5346"/></g><g class="unit-group"><title>lib/ai · 5 files · 50 lines</title><rect class="unit" x="575" y="100.25" width="194" height="81" rx="6" fill="#25221C" stroke="#5A5346"/><text x="591" y="132.2" class="m6 ink" font-size="19">ai</text><text x="591" y="154.7" class="m4 muted" font-size="15">5 files · 50 lines</text><rect x="591" y="168.25" width="162" height="3" rx="1.5" fill="#2E2A23"/><rect x="591" y="168.25" width="62.31" height="3" rx="1.5" fill="#5A5346"/></g><g class="unit-group"><title>lib/analysis/core · 13 files · 130 lines</title><rect class="unit" x="822" y="130.5" width="212" height="81" rx="6" fill="#25221C" stroke="#5A5346"/><text x="838" y="162.45" class="m6 ink" font-size="19">core</text><text x="838" y="184.95" class="m4 muted" font-size="15">13 files · 130 lines</text><rect x="838" y="198.5" width="180" height="3" rx="1.5" fill="#2E2A23"/><rect x="838" y="198.5" width="180" height="3" rx="1.5" fill="#5A5346"/></g><g class="unit-group"><title>lib/analysis/parsers · 8 files · 80 lines</title><rect class="unit" x="1101" y="130.5" width="194" height="81" rx="6" fill="#25221C" stroke="#5A5346"/><text x="1117" y="162.45" class="m6 ink" font-size="19">parsers</text><text x="1117" y="184.95" class="m4 muted" font-size="15">8 files · 80 lines</text><rect x="1117" y="198.5" width="162" height="3" rx="1.5" fill="#2E2A23"/><rect x="1117" y="198.5" width="99.69" height="3" rx="1.5" fill="#5A5346"/></g><g class="unit-group"><title>lib/storage · 5 files · 50 lines</title><rect class="unit" x="575" y="202.25" width="194" height="81" rx="6" fill="#25221C" stroke="#5A5346"/><text x="591" y="234.2" class="m6 ink" font-size="19">storage</text><text x="591" y="256.7" class="m4 muted" font-size="15">5 files · 50 lines</text><rect x="591" y="270.25" width="162" height="3" rx="1.5" fill="#2E2A23"/><rect x="591" y="270.25" width="62.31" height="3" rx="1.5" fill="#5A5346"/></g></g><path d="M72 910H1848" stroke="#3F3A31" stroke-width="1"/><rect x="72" y="929.6" width="16" height="11.7" rx="2" fill="#25221C" stroke="#5A5346"/><text x="94" y="940" class="m4 muted" font-size="13">part of the code</text><path d="M240.8 935.45h22" stroke="#B5AC9C" stroke-width="1.5" marker-end="url(#ah-plain-125)"/><text x="272.8" y="940" class="m4 muted" font-size="13">imports (number = file-level imports)</text><path d="M583.4 935.45h22" stroke="#E0A94A" stroke-width="1.5"/><text x="611.4" y="940" class="m4 muted" font-size="13">import cycle</text><rect x="727" y="929.6" width="16" height="11.7" rx="2" fill="none" stroke="#3F3A31" stroke-dasharray="3 2"/><text x="749" y="940" class="m4 muted" font-size="13">unresolved or grouped</text><text x="72" y="967" class="m4 muted" font-size="13">Tests hidden (3 files) · Partial evidence (analysis predates confidence tracking)</text><text x="72" y="994" class="m4 faint" font-size="13">Generated by Cartograph · verified from import statements · analysed 2026-09-29 · https://cartograph.test/repo/00000000-0000-4000-8000-000000000000</text></svg>